<svg width="68" height="13" viewBox="0 0 68 13" fill="none" xmlns="http://www.w3.org/2000/svg">
<path d="M6.08794 0L7.45477 4.23663H11.8779L8.29952 6.85501L9.66635 11.0916L6.08794 8.47326L2.50954 11.0916L3.87637 6.85501L0.297965 4.23663H4.72111L6.08794 0Z" fill="#EA8305"/>
<path d="M61.749 0L63.1159 4.23663H67.539L63.9606 6.85501L65.3274 11.0916L61.749 8.47326L58.1706 11.0916L59.5375 6.85501L55.9591 4.23663H60.3822L61.749 0Z" fill="#C4C4C4"/>
<path d="M47.8335 0L49.2003 4.23663H53.6235L50.0451 6.85501L51.4119 11.0916L47.8335 8.47326L44.2551 11.0916L45.6219 6.85501L42.0435 4.23663H46.4667L47.8335 0Z" fill="#C4C4C4"/>
<path d="M33.9184 0L35.2853 4.23663H39.7084L36.13 6.85501L37.4969 11.0916L33.9184 8.47326L30.34 11.0916L31.7069 6.85501L28.1285 4.23663H32.5516L33.9184 0Z" fill="#EA8305"/>
<path d="M20.0031 0L21.37 4.23663H25.7931L22.2147 6.85501L23.5816 11.0916L20.0031 8.47326L16.4247 11.0916L17.7916 6.85501L14.2132 4.23663H18.6363L20.0031 0Z" fill="#EA8305"/>
</svg>
